<svg width="256" height="260" viewBox="0 0 256 260" fill="none" xmlns="http://www.w3.org/2000/svg">
<g clip-path="url(#clip0)">
<path d="M157.9 239.768C157.9 253.668 125.7 264.868 86 264.868C46.3 264.868 14.1 253.568 14.1 239.768C14.1 225.868 46.3 214.668 86 214.668C125.7 214.668 157.9 225.868 157.9 239.768Z" fill="#9EDCF2"/>
<path d="M157.9 239.768C157.9 253.668 125.7 264.868 86 264.868C46.3 264.868 14.1 253.568 14.1 239.768C14.1 225.868 46.3 214.668 86 214.668C125.7 214.668 157.9 225.868 157.9 239.768Z" fill="#7DBCE7"/>
<path d="M46.9 125.9L44.8 133.1C44.8 133.1 44.3 135.7 46.7 136.2C49.3 136.1 49.1 133.7 48.9 133L46.9 125.9Z" fill="#9EDCF2"/>
<path d="M212.8 135.568L213 134.668C191.9 130.468 170.3 130.368 157.2 130.968C159.3 123.268 160 114.268 160 104.368C160 90.0684 154.6 78.6684 146 70.0684C147.5 65.1684 149.5 54.2684 144 40.3684C144 40.3684 134.2 37.2684 111.9 52.1684C103.2 49.9684 93.9 48.8684 84.6 48.8684C74.4 48.8684 64.1 50.1684 54.4 52.7684C31.4 37.0684 21.3 40.2684 21.3 40.2684C14.7 56.7684 18.8 69.0684 20 72.0684C12.2 80.4684 7.5 91.1684 7.5 104.268C7.5 114.168 8.6 123.068 11.4 130.768C-1.8 130.268 -22.6 130.468 -43 134.568L-42.8 135.468C-22.4 131.368 -1.4 131.268 11.7 131.768C12.3 133.368 13 134.968 13.7 136.468C0.700001 136.868 -21.4 138.568 -42.6 144.568L-42.3 145.468C-20.9 139.468 1.4 137.868 14.3 137.468C22.1 151.868 37.3 161.268 64.5 164.168C60.6 166.768 56.7 171.168 55.1 178.668C49.8 181.168 33.2 187.368 23.2 170.168C23.2 170.168 17.6 159.968 6.9 159.168C6.9 159.168 -3.5 158.968 6.2 165.668C6.2 165.668 13.1 168.968 17.9 181.268C17.9 181.268 24.2 202.268 54.3 195.468V216.968C54.3 216.968 53.7 224.668 46.6 227.168C46.6 227.168 42.4 230.068 46.9 231.668C46.9 231.668 66.4 233.268 66.4 217.268V193.668C66.4 193.668 65.6 184.268 70.2 181.068V219.868C70.2 219.868 69.9 229.168 65.1 232.668C65.1 232.668 61.9 238.368 68.9 236.868C68.9 236.868 82.3 234.968 82.9 219.268L83.2 179.968H86.4L86.7 219.268C87.3 234.868 100.7 236.868 100.7 236.868C107.7 238.468 104.5 232.668 104.5 232.668C99.7 229.168 99.4 219.868 99.4 219.868V181.368C104 184.968 103.2 193.668 103.2 193.668V217.268C103.2 233.268 122.7 231.668 122.7 231.668C127.2 230.068 123 227.168 123 227.168C116 224.568 115.3 216.968 115.3 216.968V185.968C115.3 173.868 110.2 167.468 105.2 164.168C134.2 161.268 148.1 151.968 154.5 137.368C167.2 137.668 190.1 139.268 211.9 145.468L212.2 144.568C190.5 138.468 167.8 136.868 154.9 136.468C155.5 134.968 156 133.468 156.5 131.868C169.9 131.368 191.6 131.368 212.8 135.568Z" fill="#010101"/>
<path d="M131.6 103.668C137.8 109.368 141.5 116.168 141.5 123.468C141.5 157.868 115.9 158.768 84.3 158.768C52.7 158.768 27.1 153.968 27.1 123.468C27.1 116.168 30.7 109.368 36.9 103.768C47.2 94.3684 64.6 99.3684 84.3 99.3684C104 99.3684 121.3 94.2684 131.6 103.668Z" fill="#F5CCB3"/>
<path d="M65.3 125.268C65.3 134.768 60 142.368 53.4 142.368C46.8 142.368 41.5 134.668 41.5 125.268C41.5 115.768 46.8 108.168 53.4 108.168C60 108.068 65.3 115.768 65.3 125.268Z" fill="white"/>
<path d="M61.5 125.468C61.5 131.768 57.9 136.868 53.6 136.868C49.2 136.868 45.7 131.768 45.7 125.468C45.7 119.168 49.3 114.068 53.6 114.068C57.9 114.068 61.5 119.168 61.5 125.468Z" fill="#AF5C51"/>
<path d="M128.8 125.101C128.8 134.601 123.5 142.201 116.9 142.201C110.3 142.201 105 134.501 105 125.101C105 115.601 110.3 108.001 116.9 108.001C123.4 107.901 128.8 115.601 128.8 125.101Z" fill="white"/>
<path d="M125.3 125.468C125.3 131.768 121.7 136.868 117.4 136.868C113 136.868 109.5 131.768 109.5 125.468C109.5 119.168 113.1 114.068 117.4 114.068C121.8 114.068 125.3 119.168 125.3 125.468Z" fill="#AF5C51"/>
<path d="M87.5 140.468C87.5 142.068 86.2 143.468 84.5 143.468C82.9 143.468 81.5 142.168 81.5 140.468C81.5 138.768 82.8 137.468 84.5 137.468C86.1 137.468 87.5 138.768 87.5 140.468Z" fill="#AF5C51"/>
<path d="M77.6 147.968C77.4 147.468 77.7 146.968 78.2 146.768C78.7 146.568 79.2 146.868 79.4 147.368C80.2 149.568 82.2 150.968 84.5 150.968C86.8 150.968 88.8 149.468 89.6 147.368C89.8 146.868 90.3 146.568 90.8 146.768C91.3 146.968 91.6 147.468 91.4 147.968C90.4 150.868 87.6 152.868 84.5 152.868C81.4 152.868 78.6 150.868 77.6 147.968Z" fill="#AF5C51"/>
<path d="M54.5 121.6C54.5 122.4 53.6 123 52.4 123C51.3 123 50.3 122.4 50.3 121.6C50.3 120.8 51.2 120.2 52.4 120.2C53.6 120.2 54.5 120.8 54.5 121.6Z" fill="#C4E5D9"/>
<path d="M60.3 124.8C60.3 125.6 59.4 126.2 58.2 126.2C57.1 126.2 56.1 125.6 56.1 124.8C56.1 124 57 123.4 58.2 123.4C59.4 123.4 60.3 124 60.3 124.8Z" fill="#C4E5D9"/>
<path d="M63.8 129C63.8 129.8 62.9 130.4 61.7 130.4C60.6 130.4 59.6 129.8 59.6 129C59.6 128.2 60.5 127.6 61.7 127.6C62.9 127.5 63.8 128.2 63.8 129Z" fill="#C4E5D9"/>
<path d="M67 133.8C67 134.6 66.1 135.2 64.9 135.2C63.8 135.2 62.8 134.6 62.8 133.8C62.8 133 63.7 132.4 64.9 132.4C66.1 132.3 67 133 67 133.8Z" fill="#C4E5D9"/>
<path d="M70.5 138.2C70.5 139 69.6 139.6 68.4 139.6C67.3 139.6 66.3 139 66.3 138.2C66.3 137.4 67.2 136.8 68.4 136.8C69.6 136.8 70.5 137.4 70.5 138.2Z" fill="#C4E5D9"/>
<path d="M75.3 142.1C75.3 142.9 74.4 143.5 73.2 143.5C72.1 143.5 71.1 142.9 71.1 142.1C71.1 141.3 72 140.7 73.2 140.7C74.4 140.6 75.3 141.3 75.3 142.1Z" fill="#C4E5D9"/>
<path d="M39 184.568C39 185.368 38.1 185.968 36.9 185.968C35.8 185.968 34.8 185.368 34.8 184.568C34.8 183.768 35.7 183.168 36.9 183.168C38.1 183.168 39 183.768 39 184.568Z" fill="#C4E5D9"/>
<path d="M45.7 184.568C45.7 185.368 44.8 185.968 43.6 185.968C42.5 185.968 41.5 185.368 41.5 184.568C41.5 183.768 42.4 183.168 43.6 183.168C44.8 183.168 45.7 183.768 45.7 184.568Z" fill="#C4E5D9"/>
<path d="M52.5 183.468C52.5 184.268 51.6 184.868 50.4 184.868C49.3 184.868 48.3 184.268 48.3 183.468C48.3 182.668 49.2 182.068 50.4 182.068C51.5 182.068 52.5 182.668 52.5 183.468Z" fill="#C4E5D9"/>
</g>
<defs>
<clipPath id="clip0">
<rect width="256" height="259.3" fill="white"/>
</clipPath>
</defs>
</svg>
